<svg id="Capa_1" data-name="Capa 1" xmlns="http://www.w3.org/2000/svg" xmlns:xlink="http://www.w3.org/1999/xlink" viewBox="0 0 532 469.52"><defs><style>.cls-1,.cls-5{fill:#fff;}.cls-2{clip-path:url(#clip-path);}.cls-3{clip-path:url(#clip-path-2);}.cls-4{clip-path:url(#clip-path-3);}.cls-5{fill-rule:evenodd;}</style><clipPath id="clip-path" transform="translate(-9 0.93)"><path class="cls-1" d="M429.49,65.86l-86.12,44.28a1.25,1.25,0,0,0-.16,1.9l16.21,10.61h0l-60.05,99.83C307.74,235.9,315.61,250,324,263.37c5.06,8.74,6.89,17.49,5.48,26,31.4-48.69,49.06-84.93,80.41-133.68l16.24,10.59c.54.42,1.65-.15,1.72-.81L431.06,67c.08-.58-.66-1.15-1.26-1.15a.81.81,0,0,0-.31.06"/></clipPath><clipPath id="clip-path-2" transform="translate(-9 0.93)"><path class="cls-1" d="M118.94,157.55l35,57,26.79-48.14-20.29-35c-5.74-9.88-10.56-18.52-7.66-29.78Z"/></clipPath><clipPath id="clip-path-3" transform="translate(-9 0.93)"><path class="cls-1" d="M171.31,78.24C156.4,87.49,152.14,107,161,122.17L266.25,301.78c8.87,15.15,29,19.55,43.93,10.3s19.18-28.79,10.3-43.93L215.24,88.54a31,31,0,0,0-27-15.12,32.22,32.22,0,0,0-17,4.82"/></clipPath></defs><title>venka-imagotipo</title><path class="cls-1" d="M429.49,65.86l-86.12,44.28a1.25,1.25,0,0,0-.16,1.9l16.21,10.61h0l-60.05,99.83C307.74,235.9,315.61,250,324,263.37c5.06,8.74,6.89,17.49,5.48,26,31.4-48.69,49.06-84.93,80.41-133.68l16.24,10.59c.54.42,1.65-.15,1.72-.81L431.06,67c.08-.58-.66-1.15-1.26-1.15a.81.81,0,0,0-.31.06" transform="translate(-9 0.93)"/><g class="cls-2"><polygon class="cls-1" points="382.71 348.6 528.13 133.63 329.8 8.45 184.37 223.41 382.71 348.6"/></g><path class="cls-1" d="M118.94,157.55l35,57,26.79-48.14-20.29-35c-5.74-9.88-10.56-18.52-7.66-29.78Z" transform="translate(-9 0.93)"/><g class="cls-3"><rect class="cls-1" x="89.27" y="118.85" width="121.12" height="78.51" transform="translate(-38.55 282.59) rotate(-81.1)"/></g><path class="cls-1" d="M171.31,78.24C156.4,87.49,152.14,107,161,122.17L266.25,301.78c8.87,15.15,29,19.55,43.93,10.3s19.18-28.79,10.3-43.93L215.24,88.54a31,31,0,0,0-27-15.12,32.22,32.22,0,0,0-17,4.82" transform="translate(-9 0.93)"/><g class="cls-4"><rect class="cls-1" x="103.7" y="46.16" width="274.09" height="302.44" transform="translate(-74.03 139.87) rotate(-28.53)"/></g><path class="cls-1" d="M294.77,462.79c2.49,3.86,7.05,6.11,12.75,4.93a11.58,11.58,0,0,0,4.83-2.27c5.35-4.24,5.09-9.64,1.33-14.84l-66.46-92.74,0,0c-2.63-3.41-6.7-5.37-12.24-4.22s-10.19,6.87-8.74,12.45a9.62,9.62,0,0,0,.82,2.11,8.46,8.46,0,0,0,.63,1Z" transform="translate(-9 0.93)"/><path class="cls-5" d="M307.66,353.14h0a11.64,11.64,0,0,1,11.6,11.59v84.09a11.36,11.36,0,0,1-.34,2.74c.31-2.68-.7-5.51-2.7-8.29l-20.15-27.41V364.73a11.63,11.63,0,0,1,11.59-11.59Z" transform="translate(-9 0.93)"/><path class="cls-1" d="M52.73,460.69a12.25,12.25,0,0,0,11.48,7.41c6.41,0,11.37-4.67,11.08-10.42a9.5,9.5,0,0,0-.71-3.18h0L31.26,360h0a12.36,12.36,0,0,0-11.13-6.61c-6.41,0-11.37,4.66-11.08,10.42a9.53,9.53,0,0,0,.65,3h0Z" transform="translate(-9 0.93)"/><path class="cls-1" d="M79.14,456.12l.18-.66a9.66,9.66,0,0,0,.19-2.42,9.5,9.5,0,0,0-.71-3.18h0L68.35,427l30.48-67h0c6.23-12.81,26.9-4.58,20.93,8.25Z" transform="translate(-9 0.93)"/><path class="cls-1" d="M162.24,447.27H201c6.33.08,11.44,4.72,11.44,10.43s-5.11,10.35-11.44,10.42h0l-46.22-.05c-.07,0,7.46-1.9,7.46-11.44Zm-.13-73.2h38.76c6.34-.07,11.44-4.71,11.44-10.42,0-4.57-3.26-8.45-7.81-9.86-2.43-.75-4.9-.57-7.41-.57l-42.44,0c-.06,0,7.46,1.91,7.46,11.44Z" transform="translate(-9 0.93)"/><path class="cls-5" d="M345.76,353.39h0a11.41,11.41,0,0,1,11.39,11.38V404l37.2-46.62a11.43,11.43,0,0,1,16-1.8h0a11.44,11.44,0,0,1,1.8,16l-55,68.92v16.09A11.42,11.42,0,0,1,345.76,468h0a11.41,11.41,0,0,1-11.38-11.39V364.77a11.41,11.41,0,0,1,11.38-11.38" transform="translate(-9 0.93)"/><path class="cls-5" d="M409.45,465.79h0c-4.42,4.42-12.13,2.82-16-2.14l-23.4-30.34L385,415.26l26.58,34.57c3.82,5,2.29,11.54-2.14,16" transform="translate(-9 0.93)"/><path class="cls-1" d="M472.39,360.79a12.25,12.25,0,0,1,11.48-7.41c6.41,0,11.37,4.66,11.08,10.42a9.75,9.75,0,0,1-.71,3.18h0l-43.33,94.5h0a12.37,12.37,0,0,1-11.13,6.61c-6.41,0-11.37-4.66-11.08-10.42a9.52,9.52,0,0,1,.64-3h0Z" transform="translate(-9 0.93)"/><path class="cls-1" d="M498.11,364.17l.17.66a9.21,9.21,0,0,1,.2,2.42,9.75,9.75,0,0,1-.71,3.18h0l-10.47,22.83,11.1,24.39h-20.6L468.22,439h40l10.56,23h0a12.37,12.37,0,0,0,11.13,6.62c6.4,0,11.37-4.67,11.08-10.43a9.81,9.81,0,0,0-.65-3h0Z" transform="translate(-9 0.93)"/><path class="cls-5" d="M145.9,353.39h0a11.42,11.42,0,0,1,11.39,11.38v36.34h23.16c6.28.28,11.28,4.94,11.28,10.66,0,5.88-5.31,10.66-11.86,10.66l-.72,0H157.29v34.23A11.42,11.42,0,0,1,145.9,468h0a11.42,11.42,0,0,1-11.39-11.39V364.77a11.42,11.42,0,0,1,11.39-11.38" transform="translate(-9 0.93)"/><path class="cls-5" d="M235.09,468.38h0a11.63,11.63,0,0,1-11.6-11.59V372.64a11.3,11.3,0,0,1,.34-2.74c-.31,2.68.7,5.51,2.7,8.29l20.15,27.41v51.19a11.63,11.63,0,0,1-11.59,11.59" transform="translate(-9 0.93)"/></svg>